<mxfile host="app.diagrams.net" modified="2023-10-17T22:32:49.343Z" agent="Mozilla/5.0 (Windows NT 10.0; Win64; x64) AppleWebKit/537.36 (KHTML, like Gecko) Chrome/118.0.0.0 Safari/537.36 Edg/118.0.2088.46" etag="caTcVPZHThRCZhILFi2Y" version="22.0.4" type="github">
  <diagram name="PÃ¡gina-1" id="GGuaCN20DpNZ9yj8Dpp0">
    <mxGraphModel dx="2213" dy="751" grid="1" gridSize="10" guides="1" tooltips="1" connect="1" arrows="1" fold="1" page="1" pageScale="1" pageWidth="827" pageHeight="1169" math="0" shadow="0">
      <root>
        <object label="" StyleMaza="" id="0">
          <mxCell />
        </object>
        <mxCell id="1" parent="0" />
        <mxCell id="nZIubDTmoYv-M2Z3KSqX-1" value="Persona" style="whiteSpace=wrap;html=1;align=center;fillStyle=auto;rounded=0;shadow=0;glass=0;strokeColor=default;labelBorderColor=none;labelBackgroundColor=none;fontSize=12;fontFamily=Comic Sans MS;fontStyle=0" parent="1" vertex="1">
          <mxGeometry x="-90" y="390" width="100" height="40" as="geometry" />
        </mxCell>
        <mxCell id="nZIubDTmoYv-M2Z3KSqX-2" value="Libro" style="whiteSpace=wrap;html=1;align=center;rounded=0;shadow=0;labelBorderColor=none;labelBackgroundColor=none;fontSize=12;fontFamily=Comic Sans MS;fontStyle=0" parent="1" vertex="1">
          <mxGeometry x="490" y="370" width="100" height="40" as="geometry" />
        </mxCell>
        <mxCell id="nZIubDTmoYv-M2Z3KSqX-3" value="Pretamo" style="whiteSpace=wrap;html=1;align=center;rounded=0;shadow=0;labelBorderColor=none;labelBackgroundColor=none;fontSize=12;fontFamily=Comic Sans MS;fontStyle=0" parent="1" vertex="1">
          <mxGeometry x="180" y="620" width="100" height="40" as="geometry" />
        </mxCell>
        <mxCell id="nZIubDTmoYv-M2Z3KSqX-4" value="DNI" style="ellipse;whiteSpace=wrap;html=1;align=center;rounded=1;fontFamily=Comic Sans MS;fontStyle=0" parent="1" vertex="1">
          <mxGeometry x="-180" y="295" width="100" height="40" as="geometry" />
        </mxCell>
        <mxCell id="nZIubDTmoYv-M2Z3KSqX-5" value="Codigo Socio" style="ellipse;whiteSpace=wrap;html=1;align=center;fontStyle=4;rounded=1;fontFamily=Comic Sans MS;" parent="1" vertex="1">
          <mxGeometry x="-120" y="240" width="100" height="40" as="geometry" />
        </mxCell>
        <mxCell id="nZIubDTmoYv-M2Z3KSqX-6" value="telefono" style="ellipse;whiteSpace=wrap;html=1;align=center;rounded=1;fontFamily=Comic Sans MS;fontStyle=0" parent="1" vertex="1">
          <mxGeometry x="-200" y="480" width="100" height="40" as="geometry" />
        </mxCell>
        <mxCell id="nZIubDTmoYv-M2Z3KSqX-7" value="Direccion" style="ellipse;whiteSpace=wrap;html=1;align=center;rounded=1;fontFamily=Comic Sans MS;fontStyle=0" parent="1" vertex="1">
          <mxGeometry x="-240" y="350" width="100" height="40" as="geometry" />
        </mxCell>
        <mxCell id="nZIubDTmoYv-M2Z3KSqX-8" value="Apellido" style="ellipse;whiteSpace=wrap;html=1;align=center;rounded=1;fontFamily=Comic Sans MS;fontStyle=0" parent="1" vertex="1">
          <mxGeometry x="-230" y="420" width="100" height="40" as="geometry" />
        </mxCell>
        <mxCell id="nZIubDTmoYv-M2Z3KSqX-9" value="Nombre" style="ellipse;whiteSpace=wrap;html=1;align=center;rounded=1;fontFamily=Comic Sans MS;fontStyle=0" parent="1" vertex="1">
          <mxGeometry x="-70" y="490" width="100" height="40" as="geometry" />
        </mxCell>
        <mxCell id="nZIubDTmoYv-M2Z3KSqX-10" value="Titulo" style="ellipse;whiteSpace=wrap;html=1;align=center;rounded=1;fontFamily=Comic Sans MS;fontStyle=0" parent="1" vertex="1">
          <mxGeometry x="610" y="450" width="100" height="40" as="geometry" />
        </mxCell>
        <mxCell id="nZIubDTmoYv-M2Z3KSqX-11" value="Editorial" style="ellipse;whiteSpace=wrap;html=1;align=center;rounded=1;fontFamily=Comic Sans MS;fontStyle=0" parent="1" vertex="1">
          <mxGeometry x="520" y="280" width="100" height="40" as="geometry" />
        </mxCell>
        <mxCell id="nZIubDTmoYv-M2Z3KSqX-12" value="Anio de Edicion" style="ellipse;whiteSpace=wrap;html=1;align=center;fillStyle=auto;rounded=1;fontFamily=Comic Sans MS;fontStyle=0" parent="1" vertex="1">
          <mxGeometry x="570" y="500" width="100" height="40" as="geometry" />
        </mxCell>
        <mxCell id="nZIubDTmoYv-M2Z3KSqX-13" value="Autor" style="ellipse;whiteSpace=wrap;html=1;align=center;rounded=1;fontFamily=Comic Sans MS;fontStyle=0" parent="1" vertex="1">
          <mxGeometry x="600" y="390" width="100" height="40" as="geometry" />
        </mxCell>
        <mxCell id="nZIubDTmoYv-M2Z3KSqX-14" value="ISBN" style="ellipse;whiteSpace=wrap;html=1;align=center;fontStyle=4;rounded=1;fontFamily=Comic Sans MS;" parent="1" vertex="1">
          <mxGeometry x="390" y="275" width="100" height="40" as="geometry" />
        </mxCell>
        <mxCell id="nZIubDTmoYv-M2Z3KSqX-15" value="Anio Escritura" style="ellipse;whiteSpace=wrap;html=1;align=center;rounded=1;fontFamily=Comic Sans MS;fontStyle=0" parent="1" vertex="1">
          <mxGeometry x="610" y="330" width="100" height="40" as="geometry" />
        </mxCell>
        <mxCell id="nZIubDTmoYv-M2Z3KSqX-16" value="Fecha Inicio Prestamo" style="ellipse;whiteSpace=wrap;html=1;align=center;rounded=1;fontFamily=Comic Sans MS;fontStyle=0" parent="1" vertex="1">
          <mxGeometry x="70" y="740" width="140" height="30" as="geometry" />
        </mxCell>
        <mxCell id="nZIubDTmoYv-M2Z3KSqX-17" value="Estado&amp;nbsp;" style="ellipse;whiteSpace=wrap;html=1;align=center;rounded=1;fontFamily=Comic Sans MS;fontStyle=0" parent="1" vertex="1">
          <mxGeometry x="200" y="200" width="100" height="40" as="geometry" />
        </mxCell>
        <mxCell id="nZIubDTmoYv-M2Z3KSqX-18" value="Fecha Final Prestamo&amp;nbsp;" style="ellipse;whiteSpace=wrap;html=1;align=center;rounded=1;fontFamily=Comic Sans MS;fontStyle=0" parent="1" vertex="1">
          <mxGeometry x="230" y="730" width="140" height="40" as="geometry" />
        </mxCell>
        <mxCell id="nZIubDTmoYv-M2Z3KSqX-19" value="Fecha real Entrega" style="ellipse;whiteSpace=wrap;html=1;align=center;rounded=1;fontFamily=Comic Sans MS;fontStyle=0" parent="1" vertex="1">
          <mxGeometry x="310" y="670" width="123" height="40" as="geometry" />
        </mxCell>
        <mxCell id="nZIubDTmoYv-M2Z3KSqX-20" value="" style="endArrow=none;html=1;rounded=1;entryX=1;entryY=1;entryDx=0;entryDy=0;" parent="1" source="nZIubDTmoYv-M2Z3KSqX-19" target="nZIubDTmoYv-M2Z3KSqX-3" edge="1">
          <mxGeometry relative="1" as="geometry">
            <mxPoint x="330" y="490" as="sourcePoint" />
            <mxPoint x="250" y="670" as="targetPoint" />
          </mxGeometry>
        </mxCell>
        <mxCell id="nZIubDTmoYv-M2Z3KSqX-21" value="" style="endArrow=none;html=1;rounded=1;entryX=0.5;entryY=0;entryDx=0;entryDy=0;" parent="1" source="nZIubDTmoYv-M2Z3KSqX-57" target="nZIubDTmoYv-M2Z3KSqX-25" edge="1">
          <mxGeometry relative="1" as="geometry">
            <mxPoint x="250" y="620" as="sourcePoint" />
            <mxPoint x="100" y="500" as="targetPoint" />
          </mxGeometry>
        </mxCell>
        <mxCell id="nZIubDTmoYv-M2Z3KSqX-22" value="Prestar" style="shape=rhombus;perimeter=rhombusPerimeter;whiteSpace=wrap;html=1;align=center;fontStyle=2;rounded=1;" parent="1" vertex="1">
          <mxGeometry x="273.5" y="480" width="120" height="60" as="geometry" />
        </mxCell>
        <mxCell id="nZIubDTmoYv-M2Z3KSqX-23" value="" style="endArrow=none;html=1;rounded=1;entryX=0.5;entryY=1;entryDx=0;entryDy=0;" parent="1" target="nZIubDTmoYv-M2Z3KSqX-22" edge="1">
          <mxGeometry relative="1" as="geometry">
            <mxPoint x="300" y="570" as="sourcePoint" />
            <mxPoint x="480" y="610" as="targetPoint" />
          </mxGeometry>
        </mxCell>
        <mxCell id="nZIubDTmoYv-M2Z3KSqX-24" value="" style="endArrow=none;html=1;rounded=1;entryX=0;entryY=1;entryDx=0;entryDy=0;exitX=1;exitY=0;exitDx=0;exitDy=0;" parent="1" source="nZIubDTmoYv-M2Z3KSqX-55" target="nZIubDTmoYv-M2Z3KSqX-2" edge="1">
          <mxGeometry relative="1" as="geometry">
            <mxPoint x="320" y="610" as="sourcePoint" />
            <mxPoint x="480" y="610" as="targetPoint" />
          </mxGeometry>
        </mxCell>
        <mxCell id="nZIubDTmoYv-M2Z3KSqX-25" value="Solicita" style="shape=rhombus;perimeter=rhombusPerimeter;whiteSpace=wrap;html=1;align=center;fontStyle=2;rounded=1;" parent="1" vertex="1">
          <mxGeometry x="70" y="490" width="120" height="60" as="geometry" />
        </mxCell>
        <mxCell id="nZIubDTmoYv-M2Z3KSqX-26" value="" style="endArrow=none;html=1;rounded=1;exitX=0.5;exitY=1;exitDx=0;exitDy=0;entryX=0.25;entryY=0;entryDx=0;entryDy=0;" parent="1" source="nZIubDTmoYv-M2Z3KSqX-61" target="nZIubDTmoYv-M2Z3KSqX-3" edge="1">
          <mxGeometry relative="1" as="geometry">
            <mxPoint x="320" y="610" as="sourcePoint" />
            <mxPoint x="480" y="610" as="targetPoint" />
          </mxGeometry>
        </mxCell>
        <mxCell id="nZIubDTmoYv-M2Z3KSqX-27" value="id" style="ellipse;whiteSpace=wrap;html=1;align=center;fontStyle=4;rounded=1;fontFamily=Comic Sans MS;" parent="1" vertex="1">
          <mxGeometry x="40" y="675" width="80" height="30" as="geometry" />
        </mxCell>
        <mxCell id="nZIubDTmoYv-M2Z3KSqX-28" value="" style="endArrow=none;html=1;rounded=1;entryX=1;entryY=0;entryDx=0;entryDy=0;" parent="1" target="nZIubDTmoYv-M2Z3KSqX-27" edge="1">
          <mxGeometry relative="1" as="geometry">
            <mxPoint x="180" y="660" as="sourcePoint" />
            <mxPoint x="480" y="610" as="targetPoint" />
          </mxGeometry>
        </mxCell>
        <mxCell id="nZIubDTmoYv-M2Z3KSqX-29" value="" style="endArrow=none;html=1;rounded=1;exitX=0.5;exitY=0;exitDx=0;exitDy=0;entryX=0.25;entryY=1;entryDx=0;entryDy=0;" parent="1" source="nZIubDTmoYv-M2Z3KSqX-16" target="nZIubDTmoYv-M2Z3KSqX-3" edge="1">
          <mxGeometry relative="1" as="geometry">
            <mxPoint x="320" y="610" as="sourcePoint" />
            <mxPoint x="480" y="610" as="targetPoint" />
            <Array as="points" />
          </mxGeometry>
        </mxCell>
        <mxCell id="nZIubDTmoYv-M2Z3KSqX-30" value="" style="endArrow=none;html=1;rounded=1;exitX=0.5;exitY=0;exitDx=0;exitDy=0;entryX=0.5;entryY=1;entryDx=0;entryDy=0;" parent="1" source="nZIubDTmoYv-M2Z3KSqX-18" target="nZIubDTmoYv-M2Z3KSqX-3" edge="1">
          <mxGeometry relative="1" as="geometry">
            <mxPoint x="320" y="610" as="sourcePoint" />
            <mxPoint x="480" y="610" as="targetPoint" />
          </mxGeometry>
        </mxCell>
        <mxCell id="nZIubDTmoYv-M2Z3KSqX-31" value="" style="endArrow=none;html=1;rounded=1;exitX=0.5;exitY=0;exitDx=0;exitDy=0;" parent="1" source="nZIubDTmoYv-M2Z3KSqX-9" target="nZIubDTmoYv-M2Z3KSqX-1" edge="1">
          <mxGeometry relative="1" as="geometry">
            <mxPoint x="250" y="620" as="sourcePoint" />
            <mxPoint x="410" y="620" as="targetPoint" />
          </mxGeometry>
        </mxCell>
        <mxCell id="nZIubDTmoYv-M2Z3KSqX-32" value="" style="endArrow=none;html=1;rounded=1;exitX=0.5;exitY=1;exitDx=0;exitDy=0;" parent="1" source="nZIubDTmoYv-M2Z3KSqX-4" target="nZIubDTmoYv-M2Z3KSqX-1" edge="1">
          <mxGeometry relative="1" as="geometry">
            <mxPoint x="250" y="620" as="sourcePoint" />
            <mxPoint x="410" y="620" as="targetPoint" />
          </mxGeometry>
        </mxCell>
        <mxCell id="nZIubDTmoYv-M2Z3KSqX-33" value="" style="endArrow=none;html=1;rounded=1;exitX=1;exitY=1;exitDx=0;exitDy=0;entryX=0;entryY=0.25;entryDx=0;entryDy=0;" parent="1" source="nZIubDTmoYv-M2Z3KSqX-7" target="nZIubDTmoYv-M2Z3KSqX-1" edge="1">
          <mxGeometry relative="1" as="geometry">
            <mxPoint x="250" y="620" as="sourcePoint" />
            <mxPoint x="410" y="620" as="targetPoint" />
          </mxGeometry>
        </mxCell>
        <mxCell id="nZIubDTmoYv-M2Z3KSqX-34" value="" style="endArrow=none;html=1;rounded=1;exitX=1;exitY=0.5;exitDx=0;exitDy=0;" parent="1" source="nZIubDTmoYv-M2Z3KSqX-5" edge="1">
          <mxGeometry relative="1" as="geometry">
            <mxPoint x="90" y="620" as="sourcePoint" />
            <mxPoint x="-10" y="390" as="targetPoint" />
          </mxGeometry>
        </mxCell>
        <mxCell id="nZIubDTmoYv-M2Z3KSqX-35" value="" style="endArrow=none;html=1;rounded=1;exitX=1;exitY=0.5;exitDx=0;exitDy=0;entryX=0.25;entryY=1;entryDx=0;entryDy=0;" parent="1" source="nZIubDTmoYv-M2Z3KSqX-6" target="nZIubDTmoYv-M2Z3KSqX-1" edge="1">
          <mxGeometry relative="1" as="geometry">
            <mxPoint x="90" y="620" as="sourcePoint" />
            <mxPoint x="250" y="620" as="targetPoint" />
          </mxGeometry>
        </mxCell>
        <mxCell id="nZIubDTmoYv-M2Z3KSqX-36" value="" style="endArrow=none;html=1;rounded=1;exitX=1;exitY=0;exitDx=0;exitDy=0;entryX=0;entryY=0.75;entryDx=0;entryDy=0;" parent="1" source="nZIubDTmoYv-M2Z3KSqX-8" target="nZIubDTmoYv-M2Z3KSqX-1" edge="1">
          <mxGeometry relative="1" as="geometry">
            <mxPoint x="90" y="620" as="sourcePoint" />
            <mxPoint x="-90" y="430" as="targetPoint" />
          </mxGeometry>
        </mxCell>
        <mxCell id="nZIubDTmoYv-M2Z3KSqX-37" value="" style="endArrow=none;html=1;rounded=1;entryX=0.11;entryY=1.075;entryDx=0;entryDy=0;entryPerimeter=0;exitX=0.36;exitY=0;exitDx=0;exitDy=0;exitPerimeter=0;" parent="1" source="nZIubDTmoYv-M2Z3KSqX-12" target="nZIubDTmoYv-M2Z3KSqX-2" edge="1">
          <mxGeometry relative="1" as="geometry">
            <mxPoint x="660" y="580" as="sourcePoint" />
            <mxPoint x="320" y="610" as="targetPoint" />
          </mxGeometry>
        </mxCell>
        <mxCell id="nZIubDTmoYv-M2Z3KSqX-38" value="" style="endArrow=none;html=1;rounded=1;exitX=0.5;exitY=1;exitDx=0;exitDy=0;entryX=0.5;entryY=0;entryDx=0;entryDy=0;" parent="1" source="nZIubDTmoYv-M2Z3KSqX-11" target="nZIubDTmoYv-M2Z3KSqX-2" edge="1">
          <mxGeometry relative="1" as="geometry">
            <mxPoint x="160" y="610" as="sourcePoint" />
            <mxPoint x="500" y="370" as="targetPoint" />
          </mxGeometry>
        </mxCell>
        <mxCell id="nZIubDTmoYv-M2Z3KSqX-39" value="" style="endArrow=none;html=1;rounded=1;exitX=0.36;exitY=0.975;exitDx=0;exitDy=0;entryX=0;entryY=0;entryDx=0;entryDy=0;exitPerimeter=0;" parent="1" source="nZIubDTmoYv-M2Z3KSqX-14" target="nZIubDTmoYv-M2Z3KSqX-2" edge="1">
          <mxGeometry relative="1" as="geometry">
            <mxPoint x="160" y="610" as="sourcePoint" />
            <mxPoint x="520" y="380" as="targetPoint" />
          </mxGeometry>
        </mxCell>
        <mxCell id="nZIubDTmoYv-M2Z3KSqX-40" value="" style="endArrow=none;html=1;rounded=1;entryX=0;entryY=1;entryDx=0;entryDy=0;exitX=1;exitY=0.25;exitDx=0;exitDy=0;" parent="1" source="nZIubDTmoYv-M2Z3KSqX-2" target="nZIubDTmoYv-M2Z3KSqX-15" edge="1">
          <mxGeometry relative="1" as="geometry">
            <mxPoint x="160" y="610" as="sourcePoint" />
            <mxPoint x="320" y="610" as="targetPoint" />
          </mxGeometry>
        </mxCell>
        <mxCell id="nZIubDTmoYv-M2Z3KSqX-41" value="" style="endArrow=none;html=1;rounded=1;entryX=0.34;entryY=-0.025;entryDx=0;entryDy=0;entryPerimeter=0;exitX=0.75;exitY=1;exitDx=0;exitDy=0;" parent="1" source="nZIubDTmoYv-M2Z3KSqX-2" target="nZIubDTmoYv-M2Z3KSqX-10" edge="1">
          <mxGeometry relative="1" as="geometry">
            <mxPoint x="160" y="610" as="sourcePoint" />
            <mxPoint x="320" y="610" as="targetPoint" />
          </mxGeometry>
        </mxCell>
        <mxCell id="nZIubDTmoYv-M2Z3KSqX-42" value="" style="endArrow=none;html=1;rounded=1;entryX=0;entryY=0.5;entryDx=0;entryDy=0;exitX=1;exitY=1;exitDx=0;exitDy=0;" parent="1" source="nZIubDTmoYv-M2Z3KSqX-2" target="nZIubDTmoYv-M2Z3KSqX-13" edge="1">
          <mxGeometry relative="1" as="geometry">
            <mxPoint x="160" y="610" as="sourcePoint" />
            <mxPoint x="320" y="610" as="targetPoint" />
          </mxGeometry>
        </mxCell>
        <mxCell id="nZIubDTmoYv-M2Z3KSqX-43" value="Volumenes" style="whiteSpace=wrap;html=1;align=center;shadow=0;rounded=0;labelBorderColor=none;labelBackgroundColor=none;fontSize=12;fontFamily=Comic Sans MS;fontStyle=0" parent="1" vertex="1">
          <mxGeometry x="60" y="240" width="100" height="40" as="geometry" />
        </mxCell>
        <mxCell id="nZIubDTmoYv-M2Z3KSqX-44" value="" style="endArrow=none;html=1;rounded=1;exitX=1;exitY=0.425;exitDx=0;exitDy=0;exitPerimeter=0;" parent="1" source="nZIubDTmoYv-M2Z3KSqX-43" target="nZIubDTmoYv-M2Z3KSqX-17" edge="1">
          <mxGeometry relative="1" as="geometry">
            <mxPoint x="160" y="610" as="sourcePoint" />
            <mxPoint x="320" y="610" as="targetPoint" />
          </mxGeometry>
        </mxCell>
        <mxCell id="nZIubDTmoYv-M2Z3KSqX-45" value="ID" style="ellipse;whiteSpace=wrap;html=1;align=center;fontStyle=4;rounded=1;fontFamily=Comic Sans MS;" parent="1" vertex="1">
          <mxGeometry x="40" y="180" width="100" height="40" as="geometry" />
        </mxCell>
        <mxCell id="nZIubDTmoYv-M2Z3KSqX-46" value="" style="endArrow=none;html=1;rounded=1;exitX=0.5;exitY=1;exitDx=0;exitDy=0;entryX=0.39;entryY=-0.025;entryDx=0;entryDy=0;entryPerimeter=0;" parent="1" source="nZIubDTmoYv-M2Z3KSqX-45" target="nZIubDTmoYv-M2Z3KSqX-43" edge="1">
          <mxGeometry relative="1" as="geometry">
            <mxPoint x="160" y="480" as="sourcePoint" />
            <mxPoint x="320" y="480" as="targetPoint" />
          </mxGeometry>
        </mxCell>
        <mxCell id="nZIubDTmoYv-M2Z3KSqX-47" value="Compuesto" style="shape=rhombus;perimeter=rhombusPerimeter;whiteSpace=wrap;html=1;align=center;fontStyle=2;rounded=1;" parent="1" vertex="1">
          <mxGeometry x="230" y="350" width="120" height="60" as="geometry" />
        </mxCell>
        <mxCell id="nZIubDTmoYv-M2Z3KSqX-48" value="" style="endArrow=none;html=1;rounded=1;exitX=0.763;exitY=0.967;exitDx=0;exitDy=0;exitPerimeter=0;entryX=0.5;entryY=0;entryDx=0;entryDy=0;" parent="1" source="nZIubDTmoYv-M2Z3KSqX-51" target="nZIubDTmoYv-M2Z3KSqX-47" edge="1">
          <mxGeometry relative="1" as="geometry">
            <mxPoint x="252.01999999999998" y="350" as="sourcePoint" />
            <mxPoint x="249.07695490277183" y="391.0384774513859" as="targetPoint" />
          </mxGeometry>
        </mxCell>
        <mxCell id="nZIubDTmoYv-M2Z3KSqX-49" value="" style="endArrow=none;html=1;rounded=1;exitX=1;exitY=0.5;exitDx=0;exitDy=0;" parent="1" source="nZIubDTmoYv-M2Z3KSqX-53" target="nZIubDTmoYv-M2Z3KSqX-2" edge="1">
          <mxGeometry relative="1" as="geometry">
            <mxPoint x="160" y="480" as="sourcePoint" />
            <mxPoint x="320" y="480" as="targetPoint" />
          </mxGeometry>
        </mxCell>
        <mxCell id="nZIubDTmoYv-M2Z3KSqX-50" value="" style="endArrow=none;html=1;rounded=1;exitX=0.5;exitY=1;exitDx=0;exitDy=0;" parent="1" source="nZIubDTmoYv-M2Z3KSqX-43" target="nZIubDTmoYv-M2Z3KSqX-51" edge="1">
          <mxGeometry relative="1" as="geometry">
            <mxPoint x="310" y="300" as="sourcePoint" />
            <mxPoint x="250" y="390" as="targetPoint" />
          </mxGeometry>
        </mxCell>
        <mxCell id="nZIubDTmoYv-M2Z3KSqX-51" value="0,1" style="text;strokeColor=none;fillColor=none;spacingLeft=4;spacingRight=4;overflow=hidden;rotatable=0;points=[[0,0.5],[1,0.5]];portConstraint=eastwest;fontSize=12;whiteSpace=wrap;html=1;rounded=1;" parent="1" vertex="1">
          <mxGeometry x="160" y="290" width="40" height="30" as="geometry" />
        </mxCell>
        <mxCell id="nZIubDTmoYv-M2Z3KSqX-52" value="" style="endArrow=none;html=1;rounded=1;exitX=1;exitY=0.5;exitDx=0;exitDy=0;" parent="1" source="nZIubDTmoYv-M2Z3KSqX-47" target="nZIubDTmoYv-M2Z3KSqX-53" edge="1">
          <mxGeometry relative="1" as="geometry">
            <mxPoint x="310" y="420" as="sourcePoint" />
            <mxPoint x="460" y="405" as="targetPoint" />
          </mxGeometry>
        </mxCell>
        <mxCell id="nZIubDTmoYv-M2Z3KSqX-53" value="N,1" style="text;strokeColor=none;fillColor=none;spacingLeft=4;spacingRight=4;overflow=hidden;rotatable=0;points=[[0,0.5],[1,0.5]];portConstraint=eastwest;fontSize=12;whiteSpace=wrap;html=1;rounded=1;" parent="1" vertex="1">
          <mxGeometry x="414" y="380" width="40" height="30" as="geometry" />
        </mxCell>
        <mxCell id="nZIubDTmoYv-M2Z3KSqX-54" value="" style="endArrow=none;html=1;rounded=1;entryX=-0.05;entryY=0.733;entryDx=0;entryDy=0;exitX=0.5;exitY=0;exitDx=0;exitDy=0;entryPerimeter=0;" parent="1" source="nZIubDTmoYv-M2Z3KSqX-22" target="nZIubDTmoYv-M2Z3KSqX-55" edge="1">
          <mxGeometry relative="1" as="geometry">
            <mxPoint x="367" y="505" as="sourcePoint" />
            <mxPoint x="460" y="420" as="targetPoint" />
          </mxGeometry>
        </mxCell>
        <mxCell id="nZIubDTmoYv-M2Z3KSqX-55" value="1,1" style="text;strokeColor=none;fillColor=none;spacingLeft=4;spacingRight=4;overflow=hidden;rotatable=0;points=[[0,0.5],[1,0.5]];portConstraint=eastwest;fontSize=12;whiteSpace=wrap;html=1;rounded=1;" parent="1" vertex="1">
          <mxGeometry x="430" y="420" width="40" height="30" as="geometry" />
        </mxCell>
        <mxCell id="nZIubDTmoYv-M2Z3KSqX-56" value="" style="endArrow=none;html=1;rounded=1;exitX=1;exitY=0.75;exitDx=0;exitDy=0;entryX=0.25;entryY=0.033;entryDx=0;entryDy=0;entryPerimeter=0;" parent="1" source="nZIubDTmoYv-M2Z3KSqX-1" target="nZIubDTmoYv-M2Z3KSqX-57" edge="1">
          <mxGeometry relative="1" as="geometry">
            <mxPoint x="10" y="420" as="sourcePoint" />
            <mxPoint x="110" y="515" as="targetPoint" />
          </mxGeometry>
        </mxCell>
        <mxCell id="nZIubDTmoYv-M2Z3KSqX-57" value="1,1" style="text;strokeColor=none;fillColor=none;spacingLeft=4;spacingRight=4;overflow=hidden;rotatable=0;points=[[0,0.5],[1,0.5]];portConstraint=eastwest;fontSize=12;whiteSpace=wrap;html=1;rounded=1;" parent="1" vertex="1">
          <mxGeometry x="20" y="430" width="40" height="30" as="geometry" />
        </mxCell>
        <mxCell id="nZIubDTmoYv-M2Z3KSqX-58" value="" style="endArrow=none;html=1;rounded=1;exitX=0.69;exitY=-0.025;exitDx=0;exitDy=0;exitPerimeter=0;entryX=0.025;entryY=1;entryDx=0;entryDy=0;entryPerimeter=0;" parent="1" source="nZIubDTmoYv-M2Z3KSqX-3" target="nZIubDTmoYv-M2Z3KSqX-59" edge="1">
          <mxGeometry relative="1" as="geometry">
            <mxPoint x="246" y="614" as="sourcePoint" />
            <mxPoint x="337" y="550" as="targetPoint" />
          </mxGeometry>
        </mxCell>
        <mxCell id="nZIubDTmoYv-M2Z3KSqX-59" value="0,N" style="text;strokeColor=none;fillColor=none;spacingLeft=4;spacingRight=4;overflow=hidden;rotatable=0;points=[[0,0.5],[1,0.5]];portConstraint=eastwest;fontSize=12;whiteSpace=wrap;html=1;rounded=1;" parent="1" vertex="1">
          <mxGeometry x="270" y="570" width="40" height="30" as="geometry" />
        </mxCell>
        <mxCell id="nZIubDTmoYv-M2Z3KSqX-60" value="" style="endArrow=none;html=1;rounded=1;exitX=0.5;exitY=1;exitDx=0;exitDy=0;entryX=0;entryY=0;entryDx=0;entryDy=0;entryPerimeter=0;" parent="1" source="nZIubDTmoYv-M2Z3KSqX-25" target="nZIubDTmoYv-M2Z3KSqX-61" edge="1">
          <mxGeometry relative="1" as="geometry">
            <mxPoint x="140" y="560" as="sourcePoint" />
            <mxPoint x="202" y="615" as="targetPoint" />
          </mxGeometry>
        </mxCell>
        <mxCell id="nZIubDTmoYv-M2Z3KSqX-61" value="N,0" style="text;strokeColor=none;fillColor=none;spacingLeft=4;spacingRight=4;overflow=hidden;rotatable=0;points=[[0,0.5],[1,0.5]];portConstraint=eastwest;fontSize=12;whiteSpace=wrap;html=1;rounded=1;" parent="1" vertex="1">
          <mxGeometry x="170" y="580" width="40" height="30" as="geometry" />
        </mxCell>
        <mxCell id="-ptdJt4101srZP5YwG2m-1" style="edgeStyle=orthogonalEdgeStyle;rounded=0;orthogonalLoop=1;jettySize=auto;html=1;exitX=0.5;exitY=1;exitDx=0;exitDy=0;" parent="1" source="nZIubDTmoYv-M2Z3KSqX-19" target="nZIubDTmoYv-M2Z3KSqX-19" edge="1">
          <mxGeometry relative="1" as="geometry" />
        </mxCell>
        <mxCell id="v9k_mlNCrv3lM9yxqVJo-1" value="&lt;font&gt;&lt;font&gt;Pesrsona ( &lt;b&gt;Codigo_Socio :&lt;/b&gt;&lt;font style=&quot;&quot; color=&quot;#808080&quot;&gt;String&lt;/font&gt;, DIN : &lt;font color=&quot;#808080&quot;&gt;String&lt;/font&gt;, Direccion : &lt;font color=&quot;#808080&quot;&gt;String&lt;/font&gt;, Nombre:&lt;font color=&quot;#808080&quot;&gt; String&lt;/font&gt;, Telefono :&lt;font color=&quot;#808080&quot;&gt; int&lt;/font&gt;)&lt;br&gt;Prestamo (&lt;b&gt;ID :&lt;/b&gt;&lt;font style=&quot;&quot; color=&quot;#808080&quot;&gt;String&lt;/font&gt;&lt;b&gt;, &lt;/b&gt;Fecha_incio :&lt;font color=&quot;#808080&quot;&gt; date&lt;/font&gt;, Fecha_fianl_prestamo : &lt;font color=&quot;#808080&quot;&gt;date&lt;/font&gt;, Fecha_real_Entrega : date )&amp;nbsp;&amp;nbsp;&lt;i style=&quot;border-color: var(--border-color);&quot;&gt;&lt;b&gt;Codigo_Socio [ Ref_Persona DNI ]&amp;nbsp;&lt;/b&gt;&lt;/i&gt;&lt;br&gt;Volumen (ID : &lt;font color=&quot;#808080&quot;&gt;String&lt;/font&gt; , Estado : &lt;font color=&quot;#808080&quot;&gt;int&lt;/font&gt; )&lt;br&gt;Libro (&lt;b&gt;ISBN String &lt;/b&gt;, Editorial, &lt;font color=&quot;#808080&quot;&gt;String&lt;/font&gt; , Anio_escritura ;&lt;font color=&quot;#808080&quot;&gt;date&lt;/font&gt; , Autor : &lt;font color=&quot;#808080&quot;&gt;String&lt;/font&gt;, titulo :&lt;font color=&quot;#808080&quot;&gt;String&lt;/font&gt;, Anio Edicion : &lt;font color=&quot;#808080&quot;&gt;date )&amp;nbsp;&lt;/font&gt;&lt;b&gt;&lt;i style=&quot;border-color: var(--border-color);&quot;&gt;ID_Volumen [ Ref_Volumen ID ]&amp;nbsp;&lt;/i&gt;&lt;br&gt;&lt;/b&gt;&lt;br&gt;&lt;/font&gt;&lt;/font&gt;" style="text;html=1;strokeColor=none;fillColor=#dbdbdb;align=left;verticalAlign=top;whiteSpace=wrap;rounded=0;horizontal=1;fontColor=#333333;" parent="1" vertex="1">
          <mxGeometry x="-165" y="810" width="790" height="90" as="geometry" />
        </mxCell>
      </root>
    </mxGraphModel>
  </diagram>
</mxfile>
